/* XPM */
static char * tile_xpm[] = {
"64 64 2 1",
"  c #000080",
". c #0000FF",
"................................................................",
"..                                                            ..",
". .                                                          . .",
".  .                                                        .  .",
".   .                                                      .   .",
".    .                                                    .    .",
".     .                                                  .     .",
".      .                                                .      .",
".       .                                              .       .",
".        .                                            .        .",
".         .                                          .         .",
".          .                                        .          .",
".           .                                      .           .",
".            .                                    .            .",
".             .                                  .             .",
".              .                                .              .",
".               .                              .               .",
".                .                            .                .",
".                 .                          .                 .",
".                  .                        .                  .",
".                   .                      .                   .",
".                    .                    .                    .",
".                     .                  .                     .",
".                      .                .                      .",
".                       .              .                       .",
".                        .            .                        .",
".                         .          .                         .",
".                          .        .                          .",
".                           .      .                           .",
".                            .    .                            .",
".                             .  .                             .",
".                              ..                              .",
".                              ..                              .",
".                             .  .                             .",
".                            .    .                            .",
".                           .      .                           .",
".                          .        .                          .",
".                         .          .                         .",
".                        .            .                        .",
".                       .              .                       .",
".                      .                .                      .",
".                     .                  .                     .",
".                    .                    .                    .",
".                   .                      .                   .",
".                  .                        .                  .",
".                 .                          .                 .",
".                .                            .                .",
".               .                              .               .",
".              .                                .              .",
".             .                                  .             .",
".            .                                    .            .",
".           .                                      .           .",
".          .                                        .          .",
".         .                                          .         .",
".        .                                            .        .",
".       .                                              .       .",
".      .                                                .      .",
".     .                                                  .     .",
".    .                                                    .    .",
".   .                                                      .   .",
".  .                                                        .  .",
". .                                                          . .",
"..                                                            ..",
"................................................................",
};