/* XPM */
static char * wood_xpm[] = {
"64 64 2 1",
"  c #CD853F",
". c #8B4513",
".   .   .   .   .   .   .   .   .   .   .   .   .   .   .   .   ",
".   .   .   .   .   .   .   .   .   .   .   .   .   .   .   .   ",
".   .   .   .   .   .   .   .   .   .   .   .   .   .   .   .   ",
".   .   .   .   .   .   .   .   .   .   .   .   .   .   .   .   ",
".   .   .   .   .   .   .   .   .   .   .   .   .   .   .   .   ",
".   .   .   .   .   .   .   .   .   .   .   .   .   .   .   .   ",
".   .   .   .   .   .   .   .   .   .   .   .   .   .   .   .   ",
".   .   .   .   .   .   .   .   .   .   .   .   .   .   .   .   ",
".   .   .   .   .   .   .   .   .   .   .   .   .   .   .   .   ",
".   .   .   .   .   .   .   .   .   .   .   .   .   .   .   .   ",
".   .   .   .   .   .   .   .   .   .   .   .   .   .   .   .   ",
".   .   .   .   .   .   .   .   .   .   .   .   .   .   .   .   ",
".   .   .   .   .   .   .   .   .   .   .   .   .   .   .   .   ",
".   .   .   .   .   .   .   .   .   .   .   .   .   .   .   .   ",
".   .   .   .   .   .   .   .   .   .   .   .   .   .   .   .   ",
".   .   .   .   .   .   .   .   .   .   .   .   .   .   .   .   ",
".   .   .   .   .   .   .   .   .   .   .   .   .   .   .   .   ",
".   .   .   .   .   .   .   .   .   .   .   .   .   .   .   .   ",
".   .   .   .   .   .   .   .   .   .   .   .   .   .   .   .   ",
".   .   .   .   .   .   .   .   .   .   .   .   .   .   .   .   ",
".   .   .   .   .   .   .   .   .   .   .   .   .   .   .   .   ",
".   .   .   .   .   .   .   .   .   .   .   .   .   .   .   .   ",
".   .   .   .   .   .   .   .   .   .   .   .   .   .   .   .   ",
".   .   .   .   .   .   .   .   .   .   .   .   .   .   .   .   ",
".   .   .   .   .   .   .   .   .   .   .   .   .   .   .   .   ",
".   .   .   .   .   .   .   .   .   .   .   .   .   .   .   .   ",
".   .   .   .   .   .   .   .   .   .   .   .   .   .   .   .   ",
".   .   .   .   .   .   .   .   .   .   .   .   .   .   .   .   ",
".   .   .   .   .   .   .   .   .   .   .   .   .   .   .   .   ",
".   .   .   .   .   .   .   .   .   .   .   .   .   .   .   .   ",
".   .   .   .   .   .   .   .   .   .   .   .   .   .   .   .   ",
".   .   .   .   .   .   .   .   .   .   .   .   .   .   .   .   ",
".   .   .   .   .   .   .   .   .   .   .   .   .   .   .   .   ",
".   .   .   .   .   .   .   .   .   .   .   .   .   .   .   .   ",
".   .   .   .   .   .   .   .   .   .   .   .   .   .   .   .   ",
".   .   .   .   .   .   .   .   .   .   .   .   .   .   .   .   ",
".   .   .   .   .   .   .   .   .   .   .   .   .   .   .   .   ",
".   .   .   .   .   .   .   .   .   .   .   .   .   .   .   .   ",
".   .   .   .   .   .   .   .   .   .   .   .   .   .   .   .   ",
".   .   .   .   .   .   .   .   .   .   .   .   .   .   .   .   ",
".   .   .   .   .   .   .   .   .   .   .   .   .   .   .   .   ",
".   .   .   .   .   .   .   .   .   .   .   .   .   .   .   .   ",
".   .   .   .   .   .   .   .   .   .   .   .   .   .   .   .   ",
".   .   .   .   .   .   .   .   .   .   .   .   .   .   .   .   ",
".   .   .   .   .   .   .   .   .   .   .   .   .   .   .   .   ",
".   .   .   .   .   .   .   .   .   .   .   .   .   .   .   .   ",
".   .   .   .   .   .   .   .   .   .   .   .   .   .   .   .   ",
".   .   .   .   .   .   .   .   .   .   .   .   .   .   .   .   ",
".   .   .   .   .   .   .   .   .   .   .   .   .   .   .   .   ",
".   .   .   .   .   .   .   .   .   .   .   .   .   .   .   .   ",
".   .   .   .   .   .   .   .   .   .   .   .   .   .   .   .   ",
".   .   .   .   .   .   .   .   .   .   .   .   .   .   .   .   ",
".   .   .   .   .   .   .   .   .   .   .   .   .   .   .   .   ",
".   .   .   .   .   .   .   .   .   .   .   .   .   .   .   .   ",
".   .   .   .   .   .   .   .   .   .   .   .   .   .   .   .   ",
".   .   .   .   .   .   .   .   .   .   .   .   .   .   .   .   ",
".   .   .   .   .   .   .   .   .   .   .   .   .   .   .   .   ",
".   .   .   .   .   .   .   .   .   .   .   .   .   .   .   .   ",
".   .   .   .   .   .   .   .   .   .   .   .   .   .   .   .   ",
".   .   .   .   .   .   .   .   .   .   .   .   .   .   .   .   ",
".   .   .   .   .   .   .   .   .   .   .   .   .   .   .   .   ",
".   .   .   .   .   .   .   .   .   .   .   .   .   .   .   .   ",
".   .   .   .   .   .   .   .   .   .   .   .   .   .   .   .   ",
".   .   .   .   .   .   .   .   .   .   .   .   .   .   .   .   ",
};