/* XPM */
static char * s_wall_xpm[] = {
"64 64 3 1",
". c #660000",
"# c #FF6666",
"L c #FF6666",
"................................................................",
"................................................................",
"................................................................",
"................................................................",
"................................................................",
"................................................................",
"................................................................",
"................................................................",
"................................................................",
"................................................................",
"................................................................",
"................................................................",
"................................................................",
"................................................................",
"................................................................",
".............................................#..................",
".............................................##.................",
".............................................###................",
".............................................###................",
".............................................####...............",
".............................................#####..............",
".............................................######.............",
".............................................#######............",
".............................................#######............",
".............................................########...........",
".............................................#########..........",
".............................................##########.........",
".............................................###########........",
"........################################################........",
"........#################################################.......",
"........##################################################......",
"........###################################################.....",
"........##################################################......",
"........#################################################.......",
"........################################################........",
"........################################################........",
".............................................##########.........",
".............................................#########..........",
".............................................########...........",
".............................................#######............",
".............................................#######............",
".............................................######.............",
".............................................#####..............",
".............................................####...............",
".............................................###................",
".............................................###................",
".............................................##.................",
".............................................#..................",
"................................................................",
"................................................................",
"................................................................",
"................................................................",
".....LLL........................................................",
"....L...L.......................................................",
"....L...........................................................",
".....LLL........................................................",
"........L.......................................................",
"....L...L.......................................................",
".....LLL........................................................",
"................................................................",
"................................................................",
"................................................................",
"................................................................",
"................................................................"
};
